<?xml version="1.0" standalone="no"?><!-- Generator: Gravit.io --><svg xmlns="http://www.w3.org/2000/svg" xmlns:xlink="http://www.w3.org/1999/xlink" style="isolation:isolate" width="970.9583333333335" height="976"><g transform="translate(-29,-23)"><rect width="970.9583333333335" height="976" style="fill:rgb(255,255,255)"/><g opacity="0.05"><path d=" M 756.4583333333334 103.16666666666666 C 878.5208333333334 187.79166666666669 958.2916666666667 328.81249999999994 958.2916666666667 488.5833333333333 C 958.2916666666667 747.4583333333334 748.5 957.3333333333333 489.54166666666674 957.3333333333333 C 329.7708333333334 957.3333333333333 188.75000000000009 877.5833333333333 104.12500000000009 755.4999999999999 C 125.72916666666676 793.4583333333333 152.16666666666674 828.3958333333333 182.89583333333343 859.0208333333333 C 268.00000000000006 936.3541666666666 381.1041666666668 983.375 505.16666666666674 983.375 C 769.8125000000001 983.375 984.3333333333334 768.8333333333333 984.3333333333334 504.2083333333333 C 984.3333333333334 380.16666666666663 937.3333333333334 267.04166666666663 859.9791666666667 181.9375 C 829.375 151.20833333333334 794.4166666666667 124.77083333333334 756.4583333333334 103.16666666666666 Z  M 859.9791666666667 181.9375 C 940.2708333333334 267.625 989.5416666666667 382.7083333333333 989.5416666666667 509.41666666666663 C 989.5416666666667 774.0625 775.0208333333335 988.5833333333333 510.37500000000006 988.5833333333333 C 383.6875000000001 988.5833333333333 268.5833333333334 939.3333333333334 182.89583333333343 859.0208333333333 C 269.5625000000001 945.3541666666665 388.7916666666668 999 520.7916666666667 999 C 785.4375000000001 999 999.9583333333334 784.4583333333333 999.9583333333334 519.8333333333333 C 999.9583333333334 387.85416666666663 946.3125 268.5833333333333 859.9791666666667 181.9375 Z " fill-rule="evenodd" fill="rgb(0,0,0)" stroke-width="20.833333333333336" stroke="rgba(0,0,0,0)" stroke-linecap="butt"/></g><g opacity="0.1"><path d=" M 860 181.9375 C 937.3333333333334 267.04166666666663 984.3541666666666 380.14583333333337 984.3541666666666 504.2083333333333 C 984.3541666666666 768.8541666666666 769.8333333333333 983.375 505.1875 983.375 C 381.14583333333337 983.375 268.02083333333337 936.3749999999999 182.9166666666667 859.0208333333333 C 268.60416666666674 939.3124999999999 383.6875 988.5833333333333 510.39583333333337 988.5833333333333 C 775.0416666666666 988.5833333333333 989.5625 774.0416666666666 989.5625 509.41666666666663 C 989.5625 382.72916666666663 940.3125 267.625 860 181.9375 Z " fill="rgb(0,0,0)" stroke-width="20.833333333333336" stroke="rgba(0,0,0,0)" stroke-linecap="butt"/></g><g opacity="0.2"><path d=" M 651.0416666666666 48.479166666666664 C 830.5208333333334 114.18749999999999 958.3333333333333 286.3333333333333 958.3333333333333 488.68749999999994 C 958.3333333333333 747.5624999999999 748.5416666666666 957.4374999999999 489.5833333333333 957.4374999999999 C 287.3333333333333 957.4374999999999 115.18749999999999 829.6249999999999 49.58333333333331 650.1458333333333 C 163.64688795922314 1001.3550201565845 982.8013320495851 873.5760539475027 984.4791666666665 504.3124999999995 C 984.1542887911111 283.9609890102403 861.0443869404791 115.64667007380164 651.145833333369 48.58333333334471 L 651.0416666666666 48.479166666666664 Z " fill="rgb(0,0,0)" stroke-width="20.833333333333336" stroke="rgba(0,0,0,0)" stroke-linecap="butt"/></g><linearGradient id="_lgradient_1" x1="0%" y1="50%" x2="6.123233995736766e-15%" y2="-50%"><stop offset="0.0000043478260914258975%" style="stop-color:rgb(228,228,228)"/><stop offset="100%" style="stop-color:rgb(238,238,238)"/></linearGradient><path d=" M 508.1666666666667 23 C 772.8125 23 987.3333333333333 237.52083333333331 987.3333333333333 502.1666666666667 C 987.3333333333333 766.8125 772.8125 981.3333333333333 508.1666666666667 981.3333333333333 C 243.52083333333331 981.3333333333333 29 766.8125 29 502.1666666666667 C 29 237.52083333333331 243.52083333333331 23 508.1666666666667 23 Z " fill="url(#_lgradient_1)" stroke-width="20.833333333333336" stroke="rgba(0,0,0,0)" stroke-linecap="butt"/><g opacity="0.1"><path d=" M 834.0833333333333 151 C 911.4166666666667 236.08333333333331 958.4375 349.2083333333333 958.4375 473.2708333333333 C 958.4375 737.9166666666667 743.9166666666665 952.4375 479.2708333333333 952.4375 C 355.22916666666663 952.4375 242.10416666666663 905.4375 157 828.0833333333333 C 244.04166666666663 917.4791666666667 365.54166666666663 973.2708333333333 500.10416666666663 973.2708333333333 C 764.7499999999998 973.2708333333333 979.2708333333333 758.7291666666665 979.2708333333333 494.1041666666667 C 979.2708333333333 359.4791666666667 923.5 238.04166666666666 834.0833333333333 151 Z " fill="rgb(0,0,0)" stroke-width="20.833333333333336" stroke="rgba(0,0,0,0)" stroke-linecap="butt"/></g><path d=" M 647.0975609756099 627.5365853658539 L 334.1219512195123 627.5365853658539 C 312.6048780487806 627.5365853658539 295.0000000000001 609.9317073170733 295.0000000000001 588.4146341463415 L 295.0000000000001 334.12195121951237 C 295.0000000000001 312.6048780487807 312.6048780487806 295.00000000000017 334.1219512195123 295.00000000000017 L 647.0975609756099 295.00000000000017 C 668.6146341463416 295.00000000000017 686.219512195122 312.6048780487807 686.219512195122 334.12195121951237 L 686.219512195122 588.4146341463415 C 686.219512195122 609.9317073170733 668.6146341463416 627.5365853658539 647.0975609756099 627.5365853658539 Z " fill="rgb(140,188,214)" stroke-width="2.083333333333334" stroke="rgba(0,0,0,0)" stroke-linecap="butt"/><circle vector-effect="non-scaling-stroke" cx="0" cy="0" r="1" fill="rgb(255,252,83)" transform="matrix(29.341463414634138,0,0,29.341463414634138,598.1951219512196,383.0243902439024)" stroke-width="2.083333333333334" stroke="rgba(0,0,0,0)"/><path d=" M 451.4878048780489 383.02439024390264 L 343.90243902439033 539.5121951219514 L 559.0731707317075 539.5121951219514 L 451.4878048780489 383.02439024390264 Z " fill="rgb(99,94,173)" stroke-width="2.083333333333334" stroke="rgba(0,0,0,0)" stroke-linecap="butt"/><path d=" M 559.0731707317075 441.7073170731709 L 480.829268292683 539.5121951219514 L 637.3170731707318 539.5121951219514 L 559.0731707317075 441.7073170731709 Z " fill="rgb(179,221,245)" stroke-width="2.083333333333334" stroke="rgba(0,0,0,0)" stroke-linecap="butt"/><circle vector-effect="non-scaling-stroke" cx="0" cy="0" r="1" fill="rgb(67,69,160)" transform="matrix(97.80487804878048,0,0,97.80487804878048,627.5365853658539,598.1951219512196)" stroke-width="2.083333333333334" stroke="rgba(0,0,0,0)"/><path d=" M 668.2266666666667 579.1866666666667 C 664.6 560.84 648.4133333333333 547.0000000000001 629 547.0000000000001 C 613.5866666666667 547.0000000000001 600.2266666666667 555.7466666666668 593.5333333333333 568.5200000000001 C 577.5066666666667 570.2533333333334 565 583.8266666666667 565 600.3333333333334 C 565 618.0133333333334 579.32 632.3333333333335 597 632.3333333333335 L 666.3333333333334 632.3333333333335 C 681.0533333333333 632.3333333333335 693 620.3866666666668 693 605.6666666666667 C 693 591.5866666666667 682.04 580.1733333333334 668.2266666666667 579.1866666666667 Z  M 655.6666666666666 595.0000000000001 L 629 621.6666666666667 L 602.3333333333334 595.0000000000001 L 618.3333333333334 595.0000000000001 L 618.3333333333334 573.6666666666667 L 639.6666666666666 573.6666666666667 L 639.6666666666666 595.0000000000001 L 655.6666666666666 595.0000000000001 Z " fill-rule="evenodd" fill="rgb(255,255,255)" stroke-width="2.083333333333334" stroke="rgba(0,0,0,0)" stroke-linecap="butt"/></g></svg>